<mxfile host="65bd71144e">
    <diagram id="Ai2zioqucpqmttDFhQfE" name="Page-1">
        <mxGraphModel dx="883" dy="755" grid="1" gridSize="10" guides="1" tooltips="1" connect="1" arrows="1" fold="1" page="1" pageScale="1" pageWidth="827" pageHeight="1169" math="0" shadow="0">
            <root>
                <mxCell id="0"/>
                <mxCell id="1" parent="0"/>
                <mxCell id="2" value="/dispenser" style="html=1;dashed=0;whitespace=wrap;shape=mxgraph.dfd.start;fillColor=#008a00;fontColor=#ffffff;strokeColor=#005700;" vertex="1" parent="1">
                    <mxGeometry x="50" y="60" width="80" height="30" as="geometry"/>
                </mxCell>
                <mxCell id="3" value="Create new&amp;nbsp; &lt;br&gt;dispenser" style="html=1;dashed=0;whitespace=wrap;fillColor=#a20025;fontColor=#ffffff;strokeColor=#6F0000;" vertex="1" parent="1">
                    <mxGeometry x="40" y="150" width="100" height="60" as="geometry"/>
                </mxCell>
                <mxCell id="4" value="" style="endArrow=classic;html=1;entryX=0.4;entryY=0.033;entryDx=0;entryDy=0;entryPerimeter=0;" edge="1" parent="1" target="3">
                    <mxGeometry width="50" height="50" relative="1" as="geometry">
                        <mxPoint x="80" y="90" as="sourcePoint"/>
                        <mxPoint x="340" y="230" as="targetPoint"/>
                    </mxGeometry>
                </mxCell>
                <mxCell id="8" value="" style="endArrow=classic;html=1;entryX=0.638;entryY=1.067;entryDx=0;entryDy=0;entryPerimeter=0;" edge="1" parent="1" target="2">
                    <mxGeometry width="50" height="50" relative="1" as="geometry">
                        <mxPoint x="101" y="150" as="sourcePoint"/>
                        <mxPoint x="340" y="220" as="targetPoint"/>
                    </mxGeometry>
                </mxCell>
                <mxCell id="86" style="edgeStyle=none;html=1;entryX=0.25;entryY=1;entryDx=0;entryDy=0;strokeColor=default;exitX=0.036;exitY=0.381;exitDx=0;exitDy=0;exitPerimeter=0;" edge="1" parent="1" source="9" target="3">
                    <mxGeometry relative="1" as="geometry">
                        <mxPoint x="150" y="280" as="sourcePoint"/>
                    </mxGeometry>
                </mxCell>
                <mxCell id="134" style="edgeStyle=none;html=1;entryX=0.15;entryY=0.05;entryDx=0;entryDy=0;entryPerimeter=0;strokeColor=default;" edge="1" parent="1" target="79">
                    <mxGeometry relative="1" as="geometry">
                        <mxPoint x="169" y="300" as="sourcePoint"/>
                    </mxGeometry>
                </mxCell>
                <mxCell id="9" value="Dispenser&lt;br&gt;Repo" style="shape=ellipse;html=1;dashed=0;whitespace=wrap;perimeter=ellipsePerimeter;fillColor=#6a00ff;fontColor=#ffffff;strokeColor=#3700CC;" vertex="1" parent="1">
                    <mxGeometry x="150" y="250" width="80" height="70" as="geometry"/>
                </mxCell>
                <mxCell id="11" value="" style="endArrow=classic;html=1;exitX=0.5;exitY=1;exitDx=0;exitDy=0;" edge="1" parent="1" source="3" target="9">
                    <mxGeometry width="50" height="50" relative="1" as="geometry">
                        <mxPoint x="290" y="270" as="sourcePoint"/>
                        <mxPoint x="340" y="220" as="targetPoint"/>
                    </mxGeometry>
                </mxCell>
                <mxCell id="30" value="" style="edgeStyle=none;html=1;strokeColor=default;entryX=0.37;entryY=0.019;entryDx=0;entryDy=0;entryPerimeter=0;" edge="1" parent="1" target="22">
                    <mxGeometry relative="1" as="geometry">
                        <mxPoint x="277" y="90" as="sourcePoint"/>
                        <mxPoint x="400" y="170" as="targetPoint"/>
                    </mxGeometry>
                </mxCell>
                <mxCell id="21" value="/dispenser/{id}/status" style="html=1;dashed=0;whitespace=wrap;shape=mxgraph.dfd.start;fillColor=#008a00;fontColor=#ffffff;strokeColor=#005700;" vertex="1" parent="1">
                    <mxGeometry x="220" y="60" width="140" height="30" as="geometry"/>
                </mxCell>
                <mxCell id="77" value="" style="edgeStyle=none;html=1;strokeColor=default;entryX=0.595;entryY=1.075;entryDx=0;entryDy=0;entryPerimeter=0;" edge="1" parent="1" target="21">
                    <mxGeometry relative="1" as="geometry">
                        <mxPoint x="303" y="150" as="sourcePoint"/>
                    </mxGeometry>
                </mxCell>
                <mxCell id="117" value="" style="edgeStyle=none;html=1;strokeColor=default;" edge="1" parent="1" source="22" target="98">
                    <mxGeometry relative="1" as="geometry"/>
                </mxCell>
                <mxCell id="22" value="change status&lt;br&gt;dispenser" style="html=1;dashed=0;whitespace=wrap;fillColor=#a20025;fontColor=#ffffff;strokeColor=#6F0000;" vertex="1" parent="1">
                    <mxGeometry x="240" y="150" width="100" height="60" as="geometry"/>
                </mxCell>
                <mxCell id="135" style="edgeStyle=none;html=1;exitX=0.85;exitY=0.05;exitDx=0;exitDy=0;exitPerimeter=0;strokeColor=default;entryX=0.759;entryY=0.968;entryDx=0;entryDy=0;entryPerimeter=0;" edge="1" parent="1" source="79" target="9">
                    <mxGeometry relative="1" as="geometry">
                        <mxPoint x="211" y="310" as="targetPoint"/>
                    </mxGeometry>
                </mxCell>
                <mxCell id="79" value="Dispaner&amp;nbsp;&lt;br&gt;Table" style="shape=cylinder;whiteSpace=wrap;html=1;boundedLbl=1;backgroundOutline=1;fillColor=#0050ef;fontColor=#ffffff;strokeColor=#001DBC;" vertex="1" parent="1">
                    <mxGeometry x="160" y="360" width="60" height="80" as="geometry"/>
                </mxCell>
                <mxCell id="80" value="" style="endArrow=classic;html=1;strokeColor=default;exitX=0.5;exitY=1;exitDx=0;exitDy=0;entryX=1;entryY=0;entryDx=0;entryDy=0;" edge="1" parent="1" source="22" target="9">
                    <mxGeometry width="50" height="50" relative="1" as="geometry">
                        <mxPoint x="260" y="330" as="sourcePoint"/>
                        <mxPoint x="240" y="340" as="targetPoint"/>
                    </mxGeometry>
                </mxCell>
                <mxCell id="82" value="" style="endArrow=classic;html=1;strokeColor=default;entryX=0.75;entryY=1;entryDx=0;entryDy=0;exitX=1.009;exitY=0.321;exitDx=0;exitDy=0;exitPerimeter=0;" edge="1" parent="1" source="9" target="22">
                    <mxGeometry width="50" height="50" relative="1" as="geometry">
                        <mxPoint x="220" y="270" as="sourcePoint"/>
                        <mxPoint x="310" y="280" as="targetPoint"/>
                    </mxGeometry>
                </mxCell>
                <mxCell id="118" value="" style="edgeStyle=none;html=1;strokeColor=default;" edge="1" parent="1" source="93" target="95">
                    <mxGeometry relative="1" as="geometry"/>
                </mxCell>
                <mxCell id="93" value="OPEN" style="shape=rhombus;html=1;dashed=0;whitespace=wrap;perimeter=rhombusPerimeter;" vertex="1" parent="1">
                    <mxGeometry x="400" y="235" width="60" height="40" as="geometry"/>
                </mxCell>
                <mxCell id="121" style="edgeStyle=none;html=1;exitX=1;exitY=0.5;exitDx=0;exitDy=0;entryX=0;entryY=0;entryDx=0;entryDy=0;strokeColor=default;" edge="1" parent="1" source="95" target="103">
                    <mxGeometry relative="1" as="geometry"/>
                </mxCell>
                <mxCell id="95" value="create usage&amp;nbsp;" style="shape=ellipse;html=1;dashed=0;whitespace=wrap;perimeter=ellipsePerimeter;fillColor=#a20025;fontColor=#ffffff;strokeColor=#6F0000;" vertex="1" parent="1">
                    <mxGeometry x="380" y="310" width="100" height="60" as="geometry"/>
                </mxCell>
                <mxCell id="96" value="" style="edgeStyle=none;html=1;strokeColor=default;" edge="1" source="98" target="93" parent="1">
                    <mxGeometry relative="1" as="geometry"/>
                </mxCell>
                <mxCell id="97" value="" style="edgeStyle=none;html=1;strokeColor=default;" edge="1" source="98" target="105" parent="1">
                    <mxGeometry relative="1" as="geometry"/>
                </mxCell>
                <mxCell id="98" value="if open or&amp;nbsp;&lt;br&gt;closed" style="shape=hexagon;perimeter=hexagonPerimeter2;whiteSpace=wrap;html=1;size=0.25" vertex="1" parent="1">
                    <mxGeometry x="380" y="155" width="100" height="50" as="geometry"/>
                </mxCell>
                <mxCell id="123" style="edgeStyle=none;html=1;exitX=0.85;exitY=0.05;exitDx=0;exitDy=0;exitPerimeter=0;entryX=0.753;entryY=0.975;entryDx=0;entryDy=0;entryPerimeter=0;strokeColor=default;" edge="1" parent="1" source="100" target="103">
                    <mxGeometry relative="1" as="geometry"/>
                </mxCell>
                <mxCell id="100" value="Usage&lt;br&gt;Table" style="shape=cylinder;whiteSpace=wrap;html=1;boundedLbl=1;backgroundOutline=1;fillColor=#0050ef;fontColor=#ffffff;strokeColor=#001DBC;" vertex="1" parent="1">
                    <mxGeometry x="550" y="460" width="60" height="80" as="geometry"/>
                </mxCell>
                <mxCell id="102" value="" style="edgeStyle=none;html=1;strokeColor=default;entryX=0.58;entryY=0.987;entryDx=0;entryDy=0;entryPerimeter=0;exitX=0.59;exitY=0.014;exitDx=0;exitDy=0;exitPerimeter=0;" edge="1" source="103" target="108" parent="1">
                    <mxGeometry relative="1" as="geometry">
                        <Array as="points"/>
                    </mxGeometry>
                </mxCell>
                <mxCell id="122" style="edgeStyle=none;html=1;exitX=0;exitY=0.5;exitDx=0;exitDy=0;entryX=1;entryY=1;entryDx=0;entryDy=0;strokeColor=default;" edge="1" parent="1" source="103" target="95">
                    <mxGeometry relative="1" as="geometry"/>
                </mxCell>
                <mxCell id="125" style="edgeStyle=none;html=1;entryX=0.15;entryY=0.05;entryDx=0;entryDy=0;entryPerimeter=0;strokeColor=default;" edge="1" parent="1" target="100">
                    <mxGeometry relative="1" as="geometry">
                        <mxPoint x="559" y="400" as="sourcePoint"/>
                    </mxGeometry>
                </mxCell>
                <mxCell id="103" value="consumption&lt;br&gt;repo" style="shape=ellipse;html=1;dashed=0;whitespace=wrap;perimeter=ellipsePerimeter;fillColor=#6a00ff;fontColor=#ffffff;strokeColor=#3700CC;" vertex="1" parent="1">
                    <mxGeometry x="540" y="340" width="80" height="70" as="geometry"/>
                </mxCell>
                <mxCell id="104" value="" style="edgeStyle=none;html=1;strokeColor=default;entryX=0.5;entryY=0;entryDx=0;entryDy=0;" edge="1" source="105" target="108" parent="1">
                    <mxGeometry relative="1" as="geometry">
                        <Array as="points"/>
                    </mxGeometry>
                </mxCell>
                <mxCell id="105" value="CLOSED" style="shape=rhombus;html=1;dashed=0;whitespace=wrap;perimeter=rhombusPerimeter;" vertex="1" parent="1">
                    <mxGeometry x="540" y="160" width="80" height="40" as="geometry"/>
                </mxCell>
                <mxCell id="106" value="" style="edgeStyle=none;html=1;strokeColor=default;exitX=0.447;exitY=1.053;exitDx=0;exitDy=0;exitPerimeter=0;entryX=0.433;entryY=-0.021;entryDx=0;entryDy=0;entryPerimeter=0;" edge="1" source="108" target="103" parent="1">
                    <mxGeometry relative="1" as="geometry"/>
                </mxCell>
                <mxCell id="107" value="" style="edgeStyle=none;html=1;strokeColor=default;" edge="1" source="108" target="110" parent="1">
                    <mxGeometry relative="1" as="geometry"/>
                </mxCell>
                <mxCell id="108" value="closed usage" style="shape=ellipse;html=1;dashed=0;whitespace=wrap;perimeter=ellipsePerimeter;fillColor=#a20025;fontColor=#ffffff;strokeColor=#6F0000;" vertex="1" parent="1">
                    <mxGeometry x="530" y="230" width="100" height="50" as="geometry"/>
                </mxCell>
                <mxCell id="109" value="" style="edgeStyle=none;html=1;strokeColor=default;" edge="1" source="110" target="112" parent="1">
                    <mxGeometry relative="1" as="geometry"/>
                </mxCell>
                <mxCell id="110" value="On end" style="shape=hexagon;perimeter=hexagonPerimeter2;whiteSpace=wrap;html=1;size=0.25" vertex="1" parent="1">
                    <mxGeometry x="700" y="237.5" width="80" height="35" as="geometry"/>
                </mxCell>
                <mxCell id="129" style="edgeStyle=none;html=1;exitX=0.4;exitY=1;exitDx=0;exitDy=0;entryX=0.384;entryY=0.035;entryDx=0;entryDy=0;strokeColor=default;exitPerimeter=0;entryPerimeter=0;" edge="1" parent="1" source="112" target="114">
                    <mxGeometry relative="1" as="geometry"/>
                </mxCell>
                <mxCell id="112" value="Create or update&lt;br&gt;Summary" style="shape=ellipse;html=1;dashed=0;whitespace=wrap;perimeter=ellipsePerimeter;fillColor=#a20025;fontColor=#ffffff;strokeColor=#6F0000;" vertex="1" parent="1">
                    <mxGeometry x="690" y="310" width="100" height="50" as="geometry"/>
                </mxCell>
                <mxCell id="127" style="edgeStyle=none;html=1;entryX=0.15;entryY=0.05;entryDx=0;entryDy=0;entryPerimeter=0;strokeColor=default;" edge="1" parent="1" target="115">
                    <mxGeometry relative="1" as="geometry">
                        <mxPoint x="719" y="450" as="sourcePoint"/>
                    </mxGeometry>
                </mxCell>
                <mxCell id="130" value="" style="edgeStyle=none;html=1;strokeColor=default;exitX=0.589;exitY=-0.007;exitDx=0;exitDy=0;exitPerimeter=0;" edge="1" parent="1" source="114">
                    <mxGeometry relative="1" as="geometry">
                        <mxPoint x="747" y="360" as="targetPoint"/>
                    </mxGeometry>
                </mxCell>
                <mxCell id="114" value="Summary&lt;br&gt;repo" style="shape=ellipse;html=1;dashed=0;whitespace=wrap;perimeter=ellipsePerimeter;fillColor=#6a00ff;fontColor=#ffffff;strokeColor=#3700CC;" vertex="1" parent="1">
                    <mxGeometry x="700" y="390" width="80" height="70" as="geometry"/>
                </mxCell>
                <mxCell id="126" style="edgeStyle=none;html=1;exitX=0.85;exitY=0.05;exitDx=0;exitDy=0;exitPerimeter=0;entryX=0.753;entryY=0.923;entryDx=0;entryDy=0;entryPerimeter=0;strokeColor=default;" edge="1" parent="1" source="115" target="114">
                    <mxGeometry relative="1" as="geometry"/>
                </mxCell>
                <mxCell id="115" value="Summary&lt;br&gt;Table" style="shape=cylinder;whiteSpace=wrap;html=1;boundedLbl=1;backgroundOutline=1;fillColor=#0050ef;fontColor=#ffffff;strokeColor=#001DBC;" vertex="1" parent="1">
                    <mxGeometry x="710" y="520" width="60" height="80" as="geometry"/>
                </mxCell>
            </root>
        </mxGraphModel>
    </diagram>
</mxfile>